<svg version="1" xmlns="http://www.w3.org/2000/svg" width="1553.333" height="1553.333" viewBox="0 0 1165.000000 1165.000000"><path d="M1039.1 138.6c-1.8.8-4 2.1-4.8 2.9-.8.8-2.2 2-3.1 2.7-.9.7-4.9 4.9-8.8 9.3-4 4.4-13.6 14.6-21.5 22.6-12.9 13.1-29.9 31-37.6 39.5-1.5 1.7-5.8 6.5-9.5 10.5-3.7 4.1-7.6 8.5-8.8 9.9-1.2 1.4-3.9 4.4-6.1 6.7-2.1 2.3-3.9 4.7-3.9 5.3 0 .6-.4.8-1 .5-.5-.3-1-.2-1 .3 0 .8-.7 1.8-6.3 8.2-1.2 1.4-5.8 6.8-10.2 12-4.4 5.2-8.2 9.7-8.5 10-.3.3-2.7 3.2-5.4 6.5-2.6 3.3-6.4 8-8.5 10.4-2 2.4-5.3 6.5-7.4 9-2 2.5-4.7 5.7-6 7.1-1.2 1.4-4 4.8-6.2 7.5-2.1 2.8-4.2 5.2-4.5 5.5-.3.3-2.7 3.2-5.5 6.5-2.7 3.3-5.3 6.1-5.7 6.3-.5.2-.8.8-.8 1.3 0 1-1.9 3.4-6.5 8.3-1.6 1.8-4.6 5.2-6.5 7.6-1.9 2.4-4.1 4.9-4.7 5.6-.7.7-1.3 1.7-1.3 2.3 0 .6-.4 1.1-.8 1.1-.5 0-3.7 3.7-7.3 8.2-3.5 4.5-6.8 8.6-7.4 9.2-.5.6-2.8 3.4-5 6.1-2.1 2.8-4.9 6.1-6.1 7.5-1.2 1.4-5.3 6.3-9 11s-7 8.7-7.3 9c-.3.3-4.2 5-8.5 10.5-4.4 5.5-8.4 10.5-9 11-.6.6-2.6 3-4.5 5.5s-4 5.2-4.8 6c-.7.8-6.8 8.5-13.6 17-6.7 8.5-13.2 16.6-14.2 17.9-1.1 1.3-3.7 4.4-5.8 7-2.1 2.5-5.3 6.4-7.1 8.6-1.9 2.2-8.6 10.7-15 19-6.4 8.2-12.4 16-13.5 17.1-1.1 1.2-1.7 2.5-1.4 2.8.3.3-.2.8-1.1 1.2-.9.3-1.6 1.2-1.6 1.9s-.4 1.5-.8 1.7c-.5.1-3.5 4.1-6.8 8.7-3.2 4.6-8 11.3-10.7 15-2.6 3.6-5.1 7.6-5.6 8.7-.6 1.2-1.3 2.3-1.8 2.5-.4.2-3 3.8-5.8 7.9-2.7 4.1-5.2 7.7-5.5 8-.3.3-2.3 3.2-4.5 6.5-8.1 12-25.8 37.1-27.8 39.2-1.1 1.3-1.7 2.3-1.2 2.3.4 0-.2.8-1.3 1.9-1.2 1-1.9 2.1-1.5 2.4.3.4-.2.9-1.1 1.3-.9.3-1.6 1-1.6 1.5 0 .6-.4 1.5-1 2.2-4.7 5.8-6.1 7.7-5.5 7.7.3 0-.6 1.2-2 2.7-1.4 1.5-2.5 3.1-2.5 3.5 0 .3-.6 1.3-1.3 2-.7.7-3.5 4.4-6.2 8.3-5 7.1-11.1 15.1-16.5 21.5-1.6 1.9-4.8 5.7-7.1 8.5-2.3 2.7-4.7 5.3-5.3 5.7-.6.4-.7.8-.3.8.4 0-.2 1-1.4 2.2-1.1 1.3-4.7 5.7-7.9 9.8-5.9 7.6-32.2 33.9-39.5 39.5-6.3 4.8-19.9 13.5-21.2 13.5-.6 0-1.3.4-1.5.9-.6 1.6-26.8 13.8-26.8 12.4 0-.3-.6-.1-1.2.4-1.2 1-9.2 3.5-19.8 6.4-5.2 1.4-5.4 1.5-9.5 2.2-1.6.3-6.8 1.3-11.5 2.1-8.2 1.6-10.4 1.9-20 3.1-5 .6-11.1 1.4-15 2-5.9.9-11 1.6-15.6 2.1-2.7.3-6 .7-7.4.9-1.4.2-4.3.6-6.5.9-2.2.3-5.1.8-6.5 1-1.4.2-4.3.7-6.5 1-2.2.3-12.4 2.8-22.6 5.5-17.9 4.8-22.1 5.8-28.3 6.7-2.7.3-8.2 1.8-11.6 3.1-.8.3-1.9.7-2.5.8-1.4.4-17.5 5.2-25.5 7.7-3.6 1.1-7.3 2-8.2 2.1-1 .1-1.8.4-1.8.7 0 .4-.6.7-1.2.7-1.2 0-11.9 3.1-25.6 7.5-3.4 1.1-7 2.1-8 2.3-.9.2-1.8.4-1.9.5-.2.2-.7.4-1.3.5-.5.1-1.1.3-1.2.5-.2.1-1.2.4-2.3.6-3.5.8-10.4 2.9-13.5 4.1-.8.4-1.7.7-2 .8-2 .5-8.7 2.9-9.5 3.4-.5.3-1.2.6-1.5.6-1 .2-5.6 1.7-7.5 2.5-1.6.7-11.6 4.1-13.5 4.5-.3.1-1.3.5-2.3.8-4.2 1.6-5.3 2-6.3 2.2-1.5.4-29.9 10.2-33.9 11.8-1.6.6-3.2 1.2-3.5 1.3-.3 0-1.2.4-2 .7-4.3 1.8-13 4.8-13.6 4.7-.4-.1-1 .3-1.4.9-.3.6-1.5 1.3-2.6 1.5-1.7.4-5.4 2-19.6 8.5-2.6 1.1-5.2 2.1-5.7 2.1-.6 0-1.1.4-1.1 1 0 .5-.5 1-1.1 1-1.4 0-33.1 15.5-38 18.6-2 1.3-4 2-4.3 1.7-.3-.4-.6-.2-.6.3s-1.5 1.8-3.3 2.9c-7.8 4.6-18.7 15.8-22 22.5-7.6 15.7-3.7 24 15.3 33.2 2.5 1.2 4.8 2.1 5.3 2 .4-.1.7.3.7 1 0 .6.3.8.7.5.3-.4 1.1-.3 1.7.2 1.5 1.2 20.5 7.2 30.9 9.7.9.2 2.6.6 3.7.9 4.9 1.2 6.9 1.7 13.8 3 4.1.8 7.7 1.7 8.1 1.9.4.3 2.9.7 5.5 1.1 2.7.3 5.2.8 5.7 1.1.5.3 2.6.7 4.6.8 2.1.2 6.5.8 9.8 1.4 3.3.6 7.8 1.4 10 1.7 2.2.3 4.7.7 5.5 1 .8.2 4.2.7 7.5 1.1 3.3.3 6.9.8 8 .9 1.1.2 4.3.6 7 .9 2.8.4 6.6.9 8.5 1.1 1.9.3 6 .7 9 1 3 .3 7.1.8 9 1 4.5.6 15.3 1.5 25.5 2 17.5.9 26.4 1.5 34.5 2.1 4.7.4 11.2.8 14.5.9 3.3.2 10.3.6 15.5.9 5.2.3 13.1.8 17.5 1.1 4.4.3 11.8.7 16.5 1.1 4.7.3 12.1.7 16.5.9 4.4.2 8 .4 8 .5 0 .1 2.7.3 6 .5 15.1.8 27.7 1.6 35.5 2.2 8.7.7 197.2.9 224.5.3 8.3-.2 15.5-.6 16-.9.6-.3 1.9-.6 3-.7 7.2-.5 24.6-4.9 31.2-7.9 1.7-.8 3.4-1.5 3.8-1.5 1.4 0 12.1-5.3 12.7-6.3.4-.7.8-.8.8-.4 0 .5 1.3-.1 2.9-1.2 1.6-1.2 3.2-2.1 3.6-2.1.4 0 1.7-.8 3-1.8 1.2-.9 3.3-2.4 4.5-3.2 6.4-4.3 14.2-10.5 14.7-11.7.3-.7.9-1.3 1.4-1.3 1.2 0 15.2-14.1 19.4-19.5 1.7-2.1 3.7-4.5 4.6-5.4 2.6-2.7 17.9-24.1 19.2-27.1.4-.8 2.7-4.7 5.2-8.5 2.5-3.9 5.4-8.6 6.5-10.5 1.1-1.9 4.7-7.8 8.1-13 3.3-5.2 6.5-10.7 7.2-12.2.6-1.6 1.5-2.8 1.9-2.8.4 0 .8-.6.8-1.4 0-.8.6-2.1 1.3-2.8.6-.8 1.8-2.4 2.5-3.7 2.1-3.6 5.2-9.1 7.5-13.6 1.2-2.2 2.7-4.3 3.2-4.7.6-.4.7-.8.2-.8-.4 0 .3-1.7 1.5-3.8 2.1-3.4 7.8-14.7 9.2-18.2.3-.8 1-2.2 1.5-3 1.2-2 9.1-18.8 9.1-19.3 0-.3 2.6-5.8 5.7-12.3 3.1-6.6 5.7-12.1 5.8-12.4 0-.3 2.9-6.3 6.3-13.3 3.4-7.1 6.2-13.3 6.2-13.8s.5-.9 1-.9c.6 0 1-.6 1-1.4 0-1.4 18.7-38.8 24.5-49.1 4.6-8.2 15.5-25.7 19.1-30.8 1.9-2.6 3.4-5.2 3.4-5.7 0-.6.5-1 1-1 .6 0 1-.6 1-1.4 0-.8.4-1.6.8-1.8.5-.2 2.8-3.2 5.2-6.7 2.4-3.6 6.7-9 9.7-12 2.9-3 5.3-5.6 5.3-5.8 0-.2 2.5-2.8 5.5-5.8 3-3.1 5.5-5.7 5.5-5.9 0-1.2 19.1-20.1 25-24.7 4.1-3.2 8-6.3 8.6-6.8.7-.6 1.5-.7 1.8-.4.3.4.6.1.6-.5 0-1.7 21.7-14.5 23.2-13.6.3.2.8-.1 1-.6.2-.6 1-1.2 1.8-1.4.8-.2 2.4-.7 3.5-1.1 8.7-3.5 12.3-4.8 14-4.9 1.1-.1 2.5-.4 3-.8 1.4-.8 11.9-3.1 21-4.5 6.1-.9 33.8-1 38 0 1.7.4 4.4.9 6 1.3 4.8 1.1 12.7 5 16.1 8.1 2.9 2.5 7.1 10.3 5.7 10.3-.3 0-.1.6.5 1.3.6.7 1.3 3.4 1.6 6 .3 2.7.8 5.2 1 5.5.2.4.5 2.7.7 5.2.1 2.5.5 4.9.7 5.4.3.5.7 3 .8 5.5.1 2.5.6 10.7 1 18.1 1.2 21.1.5 114.5-1.1 160-.9 25.7-1.7 46.5-2 54-.4 7.8-.7 17-2 57.3-.3 7.6-.7 14.2-1 14.7-.3.5-.1 1.1.5 1.5.6.4.7 1.1.4 1.7-1.1 1.7-1.3 60.8-.2 61.4.4.3.6.9.3 1.4-.3.5-.1 1.1.5 1.5.6.4.8 1.1.5 1.6-.4.5-.1.9.4.9.6 0 1.1.5 1.1 1.1 0 .6.7 1.7 1.5 2.5.8.9 1.5 1.2 1.5.8 0-.3.6-.2 1.3.3 3.8 2.8 12.8.6 23.7-5.9l6.7-4 .2-7.2c.1-3.9.2-7.8.2-8.6v-47.5c-.2-8.7-.2-21.5.3-54 1.8-109.1 2.3-135.2 3-138.2.7-3.1 2.1-30.7 3.1-58.8.3-8.8.7-18 1-20.5.2-2.5.7-9.2 1-15 .4-5.8.8-11.9 1-13.5.6-4.3 2-16.8 2.9-24.5.9-7.6 1.6-15.2 2.1-21.9.3-3.5.7-8 1-10 .3-2 .8-5.6 1.1-8.1.7-5.1 1.2-7.5 1.4-7.5.1 0 .3-1.4.5-3 .7-7.3 7-34.2 9.9-42.3.8-2.3 1.5-4.3 1.5-4.5-.1-.1.7-2.9 1.7-6.2 1-3.3 1.8-6.2 1.9-6.5 0-.3.8-2.8 1.8-5.5.9-2.8 1.7-5.2 1.7-5.5-.1-.3.8-3.1 1.9-6.3 1.1-3.1 1.7-5.7 1.4-5.7-.3 0-.1-.6.4-1.3.9-1 3.6-10.9 4.8-17.3.2-1 .4-1.9.5-1.9.2 0 .3-.4 2.5-12 5.8-30.2 7.5-71.7 4-98.5-.2-1.4-.4-2.5-.5-2.5 0 0-.3-2-.6-4.4-.2-2.3-1.4-8.1-2.5-12.8-1.2-4.7-2.3-9.3-2.4-10.2-.2-.9-.4-1.6-.5-1.6-.1 0-.3-1.1-.6-2.5-.2-1.4-.7-3.2-1.1-4-.3-.8-.7-2-.9-2.7-.4-2-4.5-14.7-5.4-16.8-.5-1.1-1.2-3.1-1.6-4.5-.3-1.4-1.7-4.9-3-7.8-1.3-2.9-2.4-5.6-2.4-6.1 0-2.8-20.5-44.2-22.9-46.1-.3-.3-1.2-1.5-1.8-2.8-2.7-4.7-3.8-6.6-4.6-7.6-.4-.6-4.5-7-9.1-14.1-4.6-7.2-9-13.7-9.7-14.5-.8-.9-2-2.7-2.7-4.1-.8-1.4-2.5-3.9-3.8-5.4-1.3-1.5-2.4-3.2-2.4-3.6 0-.4-.6-1.4-1.3-2.1-.7-.7-2.4-2.9-3.7-4.8-1.3-1.9-2.9-4-3.5-4.6-.5-.6-2.1-2.6-3.5-4.5-10.5-14.2-22.4-19.8-32.9-15.3zm-82.2 136c-.7.9-1.8 2.5-2.4 3.5-.5 1-5.3 8.5-10.5 16.6-5.2 8.1-9.7 15.2-10 15.8-1.1 2.2-6.5 10-7.5 10.7-.5.4-.6.8-.1.8s.1 1-1 2.2c-1.1 1.3-3.8 5.2-5.9 8.8-2.1 3.6-4.2 6.6-4.7 6.8-.4.2-.8.8-.8 1.2 0 .8-3.8 7-16.5 26.5-1.7 2.7-5.6 8.8-8.6 13.5-3 4.7-5.7 8.7-6.2 8.8-.4.2-.5.8-.1 1.3.3.5 0 .9-.5.9-.6 0-1.1.7-1.1 1.5s-.4 1.5-.9 1.5-1.2.8-1.5 1.7c-1.3 3.3-3.1 6.3-3.8 6.3-.5 0-.8.7-.8 1.5s-.4 1.5-.9 1.5-1.2.8-1.5 1.7c-.7 2.1-1.4 3.1-8 13.3-2.7 4.1-6.1 9.3-7.5 11.5-1.4 2.2-3.2 5.2-4 6.7-.8 1.6-1.8 2.8-2.3 2.8-.4 0-.8.5-.8 1.1 0 .6-2 4.1-4.4 7.7-2.4 3.7-6.5 10.2-9.2 14.5-2.7 4.3-5.7 8.7-6.6 9.9-1 1.2-1.8 2.4-1.8 2.8 0 .7-3.1 5.6-19.9 31-5.3 8-9.8 14.9-10.1 15.5-.3.5-4 6.3-8.2 12.7-4.3 6.5-7.8 12.1-7.8 12.7 0 .5-.7 1.1-1.5 1.5-.8.3-1.5 1-1.5 1.6 0 .6-.8 2.3-1.9 3.8-1 1.5-4 6.1-6.6 10.2-2.6 4.1-6.4 10-8.4 13s-4.2 6.7-5 8.2c-.8 1.6-1.8 2.8-2.3 2.8-.4 0-.8.4-.8.9 0 1.1-9.8 16.9-11.7 18.9-.7.7-1.3 1.9-1.3 2.7 0 .7-.4 1.5-.8 1.7-.8.3-16.7 24.9-18.7 28.8-.5 1.1-1.3 2-1.7 2-.5 0-.8.7-.8 1.5s-.4 1.5-1 1.5c-.5 0-1 .4-1 1 0 .7-10.2 16.9-17 27-.6.8-3.5 5.3-6.5 10s-6 9.2-6.6 10.1c-1.4 2-9 13.6-10.4 15.8-.5.9-2.1 3.2-3.5 5.1-1.4 1.9-2.9 4.2-3.5 5.1-3.5 5.8-8.9 13.5-9.6 13.7-.5.2-.9.8-.9 1.2 0 .5-2 3.8-4.5 7.2-2.5 3.5-6.2 8.8-8.2 11.8-1.9 3-4 5.6-4.4 5.8-.5.2-.9 1-.9 1.7s-.4 1.5-.8 1.7c-.4.1-3.3 3.9-6.4 8.3-3.2 4.4-6.1 8.4-6.5 9-.9 1.1-18.9 25.3-26.2 35.3-2.5 3.5-5.1 6.9-5.6 7.5-.6.7-2.2 2.8-3.5 4.7-2.6 3.8-3.8 5.3-5.7 7.5-.7.7-1.3 1.8-1.3 2.3 0 .6-.4 1.2-.9 1.4-.5.1-3.3 3.2-6.1 6.8-13.7 17.3-30.4 34.4-39.1 40.1-5.1 3.4-19 10.7-26.9 14.2-4.4 1.9-14 4.7-14 4.1 0-.3-.8 0-1.8.5-5.2 2.8-38.4 2.8-41.8 0-.6-.5-1.3-.6-1.6-.3-.3.3-3.4-.2-6.9-1.1-3.5-1-7.1-1.8-7.9-2-6.1-1.4-38.7-13.9-44.2-17.1-1.6-.8-2.8-1.3-2.8-1 0 .8-11.4-5.7-13-7.4-.3-.3-7.2-5-15.5-10.5-8.2-5.4-15.2-10.3-15.3-10.7-.2-.4-.9-.8-1.6-.8-1.4 0-5.6-4.5-5.6-6 0-1.1.1-1.1 5.1-1.5 2.1-.1 4.2-.5 4.7-.9.6-.4 2.9-.9 5.2-1.2 4.8-.7 7.5-1.2 7.5-1.4 0-.4 4.3-1.1 7.3-1.1 1.7-.1 3.2-.4 3.2-.8 0-.3 1.7-.7 3.8-.7 3.4-.1 9-.6 19.7-1.8 3.7-.5 15.1-1.4 25.4-2.1 2.5-.2 6.3-.6 8.5-.9 2.3-.3 7.3-.8 11.1-1.2 3.9-.3 7.9-.8 9-1 2.5-.5 6-1.1 10.5-1.8 1.9-.3 5-1 6.9-1.5 1.8-.6 3.6-1 4-.9 1.2.3 15.7-4.4 24.1-7.8 17.9-7.3 33.4-17.3 46-29.6 9.8-9.6 23.2-23.9 26-27.6 1.4-1.9 3.2-4.1 4.1-5 .8-1 6-7.3 11.5-14.2 5.4-6.9 10.4-13 10.9-13.6.6-.6 2.1-2.5 3.5-4.3 1.4-1.8 3-3.8 3.5-4.4 4-4.5 13.9-17.4 22.8-29.7 5.8-8 11.2-15.3 12.1-16.3.9-.9 1.6-2.1 1.6-2.6s.3-1.1.8-1.3c.4-.2 3.6-4.4 7.2-9.3 3.5-5 12.3-16.9 19.5-26.5 7.1-9.6 13.2-17.9 13.4-18.4.2-.6 1.5-2 2.7-3.3 1.3-1.3 2.4-2.7 2.4-3.1 0-.4 1-1.9 2.3-3.5 4.5-5.5 6.7-8.4 14.3-18.7 4.3-5.8 8.1-10.7 8.4-11 .3-.3 2.1-2.6 4-5.3 1.8-2.6 3.7-4.7 4.2-4.7.4 0 .8-.7.8-1.5 0-.9.6-1.8 1.4-2.1.8-.3 2-1.9 2.6-3.5.7-1.6 1.5-2.9 1.9-2.9.4 0 3.2-3.3 6.2-7.3 2.9-3.9 5.6-7.4 5.9-7.7.3-.3 3.9-4.8 8-10s7.9-10 8.5-10.6c.5-.6 2.6-3 4.5-5.4 1.9-2.4 4.9-6 6.5-8 1.7-2 4.4-5.4 6-7.6 1.7-2.1 3.7-4.6 4.5-5.4.8-.9 3-3.6 4.9-6.1 1.9-2.4 4.1-5.1 4.8-5.9.7-.8 4-4.9 7.3-9s7-8.6 8.1-9.9c1.1-1.3 3.9-4.8 6.2-7.8 2.3-2.9 4.5-5.3 4.9-5.3.5 0 .8-.7.8-1.5s.5-1.5 1-1.5c.6 0 1-.8 1-1.7 0-.9.3-1.3.6-1 .4.3 2-1.3 3.6-3.6 1.7-2.3 3.5-4.7 4.2-5.2.6-.6 2.3-2.6 3.8-4.7 1.5-2 3.3-4.2 4-5 .7-.7 4-4.7 7.2-8.8 3.2-4.1 6.4-8 7-8.5.6-.6 2.3-2.6 3.7-4.5 1.5-1.9 3.6-4.6 4.8-6 1.1-1.4 2.4-3 2.8-3.5 3-3.8 8.9-11.1 9.3-11.5.3-.3 3.2-3.9 6.5-8s6.3-7.7 6.6-8c.3-.3 2.3-2.8 4.5-5.5 2.2-2.8 4.7-5.9 5.6-7 4.8-5.7 26.4-32.9 27.3-34.3.6-.9 1.7-2.4 2.5-3.2.8-.8 2.9-3.3 4.5-5.5s3.4-4.6 4-5.3c1.1-1.4 1-1.3 8-9.7 2.8-3.3 5.3-6.4 5.8-7 .8-1.1 3.4-4.1 8.2-9.6 1.7-1.9 4.7-5.6 6.8-8.2 2.1-2.6 4.1-4.7 4.4-4.7.3 0-.1.7-.8 1.6z"/></svg>